# xmcd CD database file
#
# Track frame offsets:
#	150
#	36345
#	68479
#	114321
#	157328
#	184396
#	212058
#	236605
#	260251
#	285611
#
# Disc length: 4176 seconds
#
# Revision: 0
# Processed by: cddbd v1.5.2PL0 Copyright (c) Steve Scherf et al.
# Submitted via: CDex 1.70beta2
#
DISCID=91104e0a
DTITLE=Various Artist - Jazz Roads CD198 - Swing - Jam Sessions Vol.8 (1955)
DYEAR=2006
DGENRE=Jazz
TTITLE0=Buck Clayton Jam Session - Rock-A-Bye Basie
TTITLE1=Buck Clayton Jam Session - Out Of Nowhere
TTITLE2=Buck Clayton Jam Session - Blue Lou
TTITLE3=Buck Clayton Jam Session - Broadway
TTITLE4=Session At Midnight - Moten Swing
TTITLE5=Session At Midnight - Stompin' At The Savoy
TTITLE6=Session At Midnight - Session At Midnight
TTITLE7=Session At Midnight - Sweet Georgia Brown
TTITLE8=Session At Midnight - Making The Scene
TTITLE9=Session At Midnight - Blue Lou
EXTD=YEAR: 2006
EXTT0=
EXTT1=
EXTT2=
EXTT3=
EXTT4=
EXTT5=
EXTT6=
EXTT7=
EXTT8=
EXTT9=
PLAYORDER=
